<svg xmlns="http://www.w3.org/2000/svg" xmlns:xlink="http://www.w3.org/1999/xlink" width="500" zoomAndPan="magnify" viewBox="0 0 375 374.999991" height="500" preserveAspectRatio="xMidYMid meet" version="1.0"><defs><g/><clipPath id="bb54704423"><path d="M 0 73.5 L 136 73.5 L 136 182.25 L 0 182.25 Z M 0 73.5 " clip-rule="nonzero"/></clipPath></defs><rect x="-37.5" width="450" fill="#ffffff" y="-37.499999" height="449.999989" fill-opacity="1"/><rect x="-37.5" width="450" fill="#ffffff" y="-37.499999" height="449.999989" fill-opacity="1"/><rect x="-37.5" width="450" fill="#000000" y="-37.499999" height="449.999989" fill-opacity="1"/><path fill="#a500ff" d="M 375 180.5625 L 242.539062 75.414062 L 131.832031 75.414062 L 264.292969 180.5625 Z M 375 180.5625 " fill-opacity="1" fill-rule="nonzero"/><g clip-path="url(#bb54704423)"><path fill="#a500ff" d="M 1.867188 182.203125 C 1.386719 182.203125 0.90625 181.992188 0.578125 181.582031 C 0.015625 180.867188 0.136719 179.839844 0.839844 179.277344 L 133.300781 74.132812 C 134.011719 73.570312 135.046875 73.691406 135.601562 74.394531 C 136.164062 75.105469 136.042969 76.132812 135.339844 76.695312 L 2.886719 181.84375 C 2.585938 182.089844 2.226562 182.203125 1.867188 182.203125 Z M 1.867188 182.203125 " fill-opacity="1" fill-rule="nonzero"/></g><path fill="#a500ff" d="M 104.988281 154.695312 L 126.882812 154.695312 L 126.882812 176.589844 L 104.988281 176.589844 Z M 104.988281 154.695312 " fill-opacity="1" fill-rule="nonzero"/><path fill="#a500ff" d="M 136.777344 154.695312 L 158.671875 154.695312 L 158.671875 176.589844 L 136.777344 176.589844 Z M 136.777344 154.695312 " fill-opacity="1" fill-rule="nonzero"/><path fill="#a500ff" d="M 104.988281 124.34375 L 126.882812 124.34375 L 126.882812 146.238281 L 104.988281 146.238281 Z M 104.988281 124.34375 " fill-opacity="1" fill-rule="nonzero"/><path fill="#a500ff" d="M 136.777344 124.34375 L 158.671875 124.34375 L 158.671875 146.238281 L 136.777344 146.238281 Z M 136.777344 124.34375 " fill-opacity="1" fill-rule="nonzero"/><path fill="#a500ff" d="M 73.050781 124.34375 L 51.15625 140.960938 L 51.15625 90.832031 L 73.050781 90.832031 Z M 73.050781 124.34375 " fill-opacity="1" fill-rule="nonzero"/><g fill="#fbfafb" fill-opacity="1"><g transform="translate(48.531476, 238.459907)"><g><path d="M 30.8125 0.570312 L 31.621094 0.570312 L 31.621094 -33.285156 L 29.433594 -33.285156 L 29.433594 -4.992188 L 29.148438 -4.992188 L 4.613281 -33.808594 L 3.804688 -33.808594 L 3.804688 0 L 5.992188 0 L 5.992188 -28.292969 L 6.324219 -28.292969 Z M 30.8125 0.570312 "/></g></g></g><g fill="#fbfafb" fill-opacity="1"><g transform="translate(87.803053, 238.459907)"><g><path d="M 0.570312 0 L 3.089844 0 L 6.179688 -6.847656 L 27.292969 -6.847656 L 30.433594 0 L 32.90625 0 L 17.070312 -33.808594 L 16.40625 -33.808594 Z M 7.085938 -8.703125 L 16.59375 -29.480469 L 16.878906 -29.480469 L 26.4375 -8.703125 Z M 7.085938 -8.703125 "/></g></g></g><g fill="#fbfafb" fill-opacity="1"><g transform="translate(125.125369, 238.459907)"><g><path d="M 3.804688 0 L 6.039062 0 L 6.039062 -33.285156 L 3.804688 -33.285156 Z M 3.804688 0 "/></g></g></g><g fill="#fbfafb" fill-opacity="1"><g transform="translate(138.818796, 238.459907)"><g><path d="M 3.804688 0 L 5.992188 0 L 5.992188 -14.21875 L 17.785156 -14.265625 L 26.816406 0 L 29.242188 0 L 20.066406 -14.40625 C 25.296875 -15.214844 28.957031 -18.925781 28.957031 -23.917969 C 28.957031 -29.574219 24.34375 -33.285156 17.972656 -33.285156 L 3.804688 -33.285156 Z M 5.992188 -16.070312 L 5.992188 -31.191406 L 17.6875 -31.191406 C 22.917969 -31.191406 26.722656 -28.292969 26.722656 -23.726562 C 26.722656 -19.164062 22.917969 -16.070312 17.6875 -16.070312 Z M 5.992188 -16.070312 "/></g></g></g><g fill="#fbfafb" fill-opacity="1"><g transform="translate(174.191853, 238.459907)"><g><path d="M 19.210938 0.570312 C 28.816406 0.570312 35.851562 -6.5625 35.851562 -16.59375 C 35.851562 -26.628906 28.816406 -33.808594 19.210938 -33.808594 C 9.652344 -33.808594 2.617188 -26.628906 2.617188 -16.59375 C 2.617188 -6.5625 9.652344 0.570312 19.210938 0.570312 Z M 19.210938 -1.523438 C 10.890625 -1.523438 4.800781 -7.796875 4.800781 -16.59375 C 4.800781 -25.390625 10.890625 -31.714844 19.210938 -31.714844 C 27.578125 -31.714844 33.664062 -25.390625 33.664062 -16.59375 C 33.664062 -7.796875 27.578125 -1.523438 19.210938 -1.523438 Z M 19.210938 -1.523438 "/></g></g></g><g fill="#fbfafb" fill-opacity="1"><g transform="translate(216.506185, 238.459907)"><g><path d="M 3.804688 0 L 19.589844 0 C 26.011719 0 30.71875 -3.757812 30.71875 -8.9375 C 30.71875 -13.027344 27.910156 -16.214844 23.679688 -17.402344 L 23.679688 -17.640625 C 26.867188 -18.925781 28.910156 -21.585938 28.910156 -25.011719 C 28.910156 -29.957031 24.773438 -33.285156 18.972656 -33.285156 L 3.804688 -33.285156 Z M 6.039062 -17.972656 L 6.039062 -31.242188 L 18.734375 -31.242188 C 23.347656 -31.242188 26.722656 -28.71875 26.722656 -24.679688 C 26.722656 -20.683594 23.347656 -17.972656 18.734375 -17.972656 Z M 6.039062 -2.042969 L 6.039062 -16.121094 L 19.402344 -16.121094 C 24.679688 -16.121094 28.484375 -13.410156 28.484375 -9.175781 C 28.484375 -4.898438 24.679688 -2.042969 19.402344 -2.042969 Z M 6.039062 -2.042969 "/></g></g></g><g fill="#fbfafb" fill-opacity="1"><g transform="translate(253.780974, 238.459907)"><g><path d="M 30.8125 0.570312 L 31.621094 0.570312 L 31.621094 -33.285156 L 29.433594 -33.285156 L 29.433594 -4.992188 L 29.148438 -4.992188 L 4.613281 -33.808594 L 3.804688 -33.808594 L 3.804688 0 L 5.992188 0 L 5.992188 -28.292969 L 6.324219 -28.292969 Z M 30.8125 0.570312 "/></g></g></g><g fill="#fbfafb" fill-opacity="1"><g transform="translate(293.052563, 238.459907)"><g><path d="M 3.804688 0 L 19.589844 0 C 26.011719 0 30.71875 -3.757812 30.71875 -8.9375 C 30.71875 -13.027344 27.910156 -16.214844 23.679688 -17.402344 L 23.679688 -17.640625 C 26.867188 -18.925781 28.910156 -21.585938 28.910156 -25.011719 C 28.910156 -29.957031 24.773438 -33.285156 18.972656 -33.285156 L 3.804688 -33.285156 Z M 6.039062 -17.972656 L 6.039062 -31.242188 L 18.734375 -31.242188 C 23.347656 -31.242188 26.722656 -28.71875 26.722656 -24.679688 C 26.722656 -20.683594 23.347656 -17.972656 18.734375 -17.972656 Z M 6.039062 -2.042969 L 6.039062 -16.121094 L 19.402344 -16.121094 C 24.679688 -16.121094 28.484375 -13.410156 28.484375 -9.175781 C 28.484375 -4.898438 24.679688 -2.042969 19.402344 -2.042969 Z M 6.039062 -2.042969 "/></g></g></g><g fill="#fbfafb" fill-opacity="1"><g transform="translate(91.55019, 289.750717)"><g><path d="M 1.296875 0 L 1.296875 -2.59375 L 3.984375 -2.59375 L 3.984375 -3.21875 L 1.296875 -3.21875 L 1.296875 -5.160156 L 4.339844 -5.160156 L 4.339844 -5.789062 L 0.597656 -5.789062 L 0.597656 0 Z M 1.296875 0 "/></g></g></g><g fill="#fbfafb" fill-opacity="1"><g transform="translate(99.905666, 289.750717)"><g><path d="M 4.339844 0 L 4.339844 -0.628906 L 1.296875 -0.628906 L 1.296875 -2.59375 L 3.984375 -2.59375 L 3.984375 -3.21875 L 1.296875 -3.21875 L 1.296875 -5.160156 L 4.339844 -5.160156 L 4.339844 -5.789062 L 0.597656 -5.789062 L 0.597656 0 Z M 4.339844 0 "/></g></g></g><g fill="#fbfafb" fill-opacity="1"><g transform="translate(108.374981, 289.750717)"><g><path d="M 4.339844 0 L 4.339844 -0.628906 L 1.296875 -0.628906 L 1.296875 -2.59375 L 3.984375 -2.59375 L 3.984375 -3.21875 L 1.296875 -3.21875 L 1.296875 -5.160156 L 4.339844 -5.160156 L 4.339844 -5.789062 L 0.597656 -5.789062 L 0.597656 0 Z M 4.339844 0 "/></g></g></g><g fill="#fbfafb" fill-opacity="1"><g transform="translate(116.844297, 289.750717)"><g><path d="M 3.894531 0 L 3.894531 -0.628906 L 1.296875 -0.628906 L 1.296875 -5.789062 L 0.597656 -5.789062 L 0.597656 0 Z M 3.894531 0 "/></g></g></g><g fill="#fbfafb" fill-opacity="1"><g transform="translate(124.645774, 289.750717)"><g/></g></g><g fill="#fbfafb" fill-opacity="1"><g transform="translate(130.565182, 289.750717)"><g><path d="M 2.695312 0.0742188 C 4.015625 0.0742188 4.71875 -0.59375 4.71875 -1.617188 C 4.71875 -2.882812 3.679688 -3.105469 2.730469 -3.308594 C 1.957031 -3.476562 1.253906 -3.628906 1.253906 -4.332031 C 1.253906 -4.886719 1.660156 -5.242188 2.445312 -5.242188 C 3.082031 -5.242188 3.710938 -4.984375 3.878906 -4.195312 L 4.554688 -4.195312 C 4.363281 -5.386719 3.429688 -5.867188 2.453125 -5.867188 C 1.320312 -5.867188 0.554688 -5.257812 0.554688 -4.273438 C 0.554688 -3.132812 1.519531 -2.929688 2.421875 -2.738281 C 3.242188 -2.566406 4.023438 -2.398438 4.023438 -1.570312 C 4.023438 -0.878906 3.535156 -0.546875 2.722656 -0.546875 C 2.003906 -0.546875 1.207031 -0.828125 1.023438 -1.753906 L 0.320312 -1.753906 C 0.515625 -0.457031 1.546875 0.0742188 2.695312 0.0742188 Z M 2.695312 0.0742188 "/></g></g></g><g fill="#fbfafb" fill-opacity="1"><g transform="translate(139.467062, 289.750717)"><g><path d="M 0.8125 0 L 1.320312 -1.417969 L 3.945312 -1.417969 L 4.453125 0 L 5.160156 0 L 3.027344 -5.789062 L 2.238281 -5.789062 L 0.105469 0 Z M 2.632812 -5.078125 L 3.710938 -2.042969 L 1.554688 -2.042969 Z M 2.632812 -5.078125 "/></g></g></g><g fill="#fbfafb" fill-opacity="1"><g transform="translate(148.528319, 289.750717)"><g><path d="M 1.296875 0 L 1.296875 -2.59375 L 3.984375 -2.59375 L 3.984375 -3.21875 L 1.296875 -3.21875 L 1.296875 -5.160156 L 4.339844 -5.160156 L 4.339844 -5.789062 L 0.597656 -5.789062 L 0.597656 0 Z M 1.296875 0 "/></g></g></g><g fill="#fbfafb" fill-opacity="1"><g transform="translate(156.883795, 289.750717)"><g><path d="M 4.339844 0 L 4.339844 -0.628906 L 1.296875 -0.628906 L 1.296875 -2.59375 L 3.984375 -2.59375 L 3.984375 -3.21875 L 1.296875 -3.21875 L 1.296875 -5.160156 L 4.339844 -5.160156 L 4.339844 -5.789062 L 0.597656 -5.789062 L 0.597656 0 Z M 4.339844 0 "/></g></g></g><g fill="#fbfafb" fill-opacity="1"><g transform="translate(165.353111, 289.750717)"><g><path d="M 0.917969 0.0742188 C 1.152344 0.0742188 1.351562 -0.128906 1.351562 -0.378906 C 1.351562 -0.613281 1.152344 -0.820312 0.917969 -0.820312 C 0.667969 -0.820312 0.457031 -0.621094 0.457031 -0.378906 C 0.457031 -0.128906 0.660156 0.0742188 0.917969 0.0742188 Z M 0.917969 0.0742188 "/></g></g></g><g fill="#fbfafb" fill-opacity="1"><g transform="translate(170.953774, 289.750717)"><g><path d="M 0.917969 0.0742188 C 1.152344 0.0742188 1.351562 -0.128906 1.351562 -0.378906 C 1.351562 -0.613281 1.152344 -0.820312 0.917969 -0.820312 C 0.667969 -0.820312 0.457031 -0.621094 0.457031 -0.378906 C 0.457031 -0.128906 0.660156 0.0742188 0.917969 0.0742188 Z M 0.917969 0.0742188 "/></g></g></g><g fill="#fbfafb" fill-opacity="1"><g transform="translate(176.554437, 289.750717)"><g><path d="M 0.917969 0.0742188 C 1.152344 0.0742188 1.351562 -0.128906 1.351562 -0.378906 C 1.351562 -0.613281 1.152344 -0.820312 0.917969 -0.820312 C 0.667969 -0.820312 0.457031 -0.621094 0.457031 -0.378906 C 0.457031 -0.128906 0.660156 0.0742188 0.917969 0.0742188 Z M 0.917969 0.0742188 "/></g></g></g><g fill="#fbfafb" fill-opacity="1"><g transform="translate(182.1551, 289.750717)"><g><path d="M 1.296875 0 L 1.296875 -2.59375 L 3.984375 -2.59375 L 3.984375 -3.21875 L 1.296875 -3.21875 L 1.296875 -5.160156 L 4.339844 -5.160156 L 4.339844 -5.789062 L 0.597656 -5.789062 L 0.597656 0 Z M 1.296875 0 "/></g></g></g><g fill="#fbfafb" fill-opacity="1"><g transform="translate(190.510576, 289.750717)"><g><path d="M 4.339844 0 L 4.339844 -0.628906 L 1.296875 -0.628906 L 1.296875 -2.59375 L 3.984375 -2.59375 L 3.984375 -3.21875 L 1.296875 -3.21875 L 1.296875 -5.160156 L 4.339844 -5.160156 L 4.339844 -5.789062 L 0.597656 -5.789062 L 0.597656 0 Z M 4.339844 0 "/></g></g></g><g fill="#fbfafb" fill-opacity="1"><g transform="translate(198.979892, 289.750717)"><g><path d="M 4.339844 0 L 4.339844 -0.628906 L 1.296875 -0.628906 L 1.296875 -2.59375 L 3.984375 -2.59375 L 3.984375 -3.21875 L 1.296875 -3.21875 L 1.296875 -5.160156 L 4.339844 -5.160156 L 4.339844 -5.789062 L 0.597656 -5.789062 L 0.597656 0 Z M 4.339844 0 "/></g></g></g><g fill="#fbfafb" fill-opacity="1"><g transform="translate(207.449207, 289.750717)"><g><path d="M 3.894531 0 L 3.894531 -0.628906 L 1.296875 -0.628906 L 1.296875 -5.789062 L 0.597656 -5.789062 L 0.597656 0 Z M 3.894531 0 "/></g></g></g><g fill="#fbfafb" fill-opacity="1"><g transform="translate(215.250685, 289.750717)"><g/></g></g><g fill="#fbfafb" fill-opacity="1"><g transform="translate(221.170092, 289.750717)"><g><path d="M 0.8125 0 L 1.320312 -1.417969 L 3.945312 -1.417969 L 4.453125 0 L 5.160156 0 L 3.027344 -5.789062 L 2.238281 -5.789062 L 0.105469 0 Z M 2.632812 -5.078125 L 3.710938 -2.042969 L 1.554688 -2.042969 Z M 2.632812 -5.078125 "/></g></g></g><g fill="#fbfafb" fill-opacity="1"><g transform="translate(230.231349, 289.750717)"><g><path d="M 2.761719 0 L 2.761719 -5.160156 L 4.726562 -5.160156 L 4.726562 -5.789062 L 0.105469 -5.789062 L 0.105469 -5.160156 L 2.0625 -5.160156 L 2.0625 0 Z M 2.761719 0 "/></g></g></g><g fill="#fbfafb" fill-opacity="1"><g transform="translate(238.860032, 289.750717)"><g/></g></g><g fill="#fbfafb" fill-opacity="1"><g transform="translate(244.77944, 289.750717)"><g><path d="M 1.296875 0 L 1.296875 -2.601562 L 4.195312 -2.601562 L 4.195312 0 L 4.894531 0 L 4.894531 -5.789062 L 4.195312 -5.789062 L 4.195312 -3.226562 L 1.296875 -3.226562 L 1.296875 -5.789062 L 0.597656 -5.789062 L 0.597656 0 Z M 1.296875 0 "/></g></g></g><g fill="#fbfafb" fill-opacity="1"><g transform="translate(254.075951, 289.750717)"><g><path d="M 3.066406 0.0742188 C 4.902344 0.0742188 5.769531 -1.320312 5.769531 -2.898438 C 5.769531 -4.476562 4.902344 -5.867188 3.066406 -5.867188 C 1.246094 -5.867188 0.378906 -4.476562 0.378906 -2.898438 C 0.378906 -1.320312 1.246094 0.0742188 3.066406 0.0742188 Z M 3.066406 -0.554688 C 1.785156 -0.554688 1.078125 -1.539062 1.078125 -2.898438 C 1.078125 -4.25 1.785156 -5.238281 3.066406 -5.238281 C 4.371094 -5.238281 5.070312 -4.25 5.070312 -2.898438 C 5.070312 -1.539062 4.371094 -0.554688 3.066406 -0.554688 Z M 3.066406 -0.554688 "/></g></g></g><g fill="#fbfafb" fill-opacity="1"><g transform="translate(264.025111, 289.750717)"><g><path d="M 1.296875 0 L 1.296875 -5.335938 L 3.066406 0 L 3.757812 0 L 5.523438 -5.371094 L 5.523438 0 L 6.222656 0 L 6.222656 -5.789062 L 4.964844 -5.789062 L 3.40625 -0.863281 L 1.851562 -5.789062 L 0.597656 -5.789062 L 0.597656 0 Z M 1.296875 0 "/></g></g></g><g fill="#fbfafb" fill-opacity="1"><g transform="translate(274.642119, 289.750717)"><g><path d="M 4.339844 0 L 4.339844 -0.628906 L 1.296875 -0.628906 L 1.296875 -2.59375 L 3.984375 -2.59375 L 3.984375 -3.21875 L 1.296875 -3.21875 L 1.296875 -5.160156 L 4.339844 -5.160156 L 4.339844 -5.789062 L 0.597656 -5.789062 L 0.597656 0 Z M 4.339844 0 "/></g></g></g><path stroke-linecap="round" transform="matrix(1.49782, 0, 0, 1.5, 111.749997, 268.952589)" fill="none" stroke-linejoin="miter" d="M 0.50073 0.000357508 L 101.650328 0.000357508 " stroke="#a500ff" strokeWidth="1" stroke-opacity="1" stroke-miterlimit="4"/></svg>