<svg xmlns="http://www.w3.org/2000/svg" xmlns:xlink="http://www.w3.org/1999/xlink" width="500" zoomAndPan="magnify" viewBox="0 0 375 374.999991" height="500" preserveAspectRatio="xMidYMid meet" version="1.0"><defs><g/><clipPath id="0208a55b37"><path d="M 0 73.5 L 136 73.5 L 136 182.25 L 0 182.25 Z M 0 73.5 " clip-rule="nonzero"/></clipPath></defs><path fill="#a500ff" d="M 375 180.5625 L 242.539062 75.414062 L 131.832031 75.414062 L 264.292969 180.5625 Z M 375 180.5625 " fill-opacity="1" fill-rule="nonzero"/><g clip-path="url(#0208a55b37)"><path fill="#a500ff" d="M 1.867188 182.203125 C 1.386719 182.203125 0.90625 181.992188 0.578125 181.582031 C 0.015625 180.867188 0.136719 179.839844 0.839844 179.277344 L 133.300781 74.132812 C 134.011719 73.570312 135.046875 73.691406 135.601562 74.394531 C 136.164062 75.105469 136.042969 76.132812 135.339844 76.695312 L 2.886719 181.84375 C 2.585938 182.089844 2.226562 182.203125 1.867188 182.203125 Z M 1.867188 182.203125 " fill-opacity="1" fill-rule="nonzero"/></g><path fill="#a500ff" d="M 104.988281 154.695312 L 126.882812 154.695312 L 126.882812 176.589844 L 104.988281 176.589844 Z M 104.988281 154.695312 " fill-opacity="1" fill-rule="nonzero"/><path fill="#a500ff" d="M 136.777344 154.695312 L 158.671875 154.695312 L 158.671875 176.589844 L 136.777344 176.589844 Z M 136.777344 154.695312 " fill-opacity="1" fill-rule="nonzero"/><path fill="#a500ff" d="M 104.988281 124.34375 L 126.882812 124.34375 L 126.882812 146.238281 L 104.988281 146.238281 Z M 104.988281 124.34375 " fill-opacity="1" fill-rule="nonzero"/><path fill="#a500ff" d="M 136.777344 124.34375 L 158.671875 124.34375 L 158.671875 146.238281 L 136.777344 146.238281 Z M 136.777344 124.34375 " fill-opacity="1" fill-rule="nonzero"/><path fill="#a500ff" d="M 73.050781 124.34375 L 51.15625 140.960938 L 51.15625 90.832031 L 73.050781 90.832031 Z M 73.050781 124.34375 " fill-opacity="1" fill-rule="nonzero"/><g fill="#000000" fill-opacity="1"><g transform="translate(48.531476, 238.459907)"><g><path d="M 30.8125 0.570312 L 31.621094 0.570312 L 31.621094 -33.285156 L 29.433594 -33.285156 L 29.433594 -4.992188 L 29.148438 -4.992188 L 4.613281 -33.808594 L 3.804688 -33.808594 L 3.804688 0 L 5.992188 0 L 5.992188 -28.292969 L 6.324219 -28.292969 Z M 30.8125 0.570312 "/></g></g></g><g fill="#000000" fill-opacity="1"><g transform="translate(87.803053, 238.459907)"><g><path d="M 0.570312 0 L 3.089844 0 L 6.179688 -6.847656 L 27.292969 -6.847656 L 30.433594 0 L 32.90625 0 L 17.070312 -33.808594 L 16.40625 -33.808594 Z M 7.085938 -8.703125 L 16.59375 -29.480469 L 16.878906 -29.480469 L 26.4375 -8.703125 Z M 7.085938 -8.703125 "/></g></g></g><g fill="#000000" fill-opacity="1"><g transform="translate(125.125369, 238.459907)"><g><path d="M 3.804688 0 L 6.039062 0 L 6.039062 -33.285156 L 3.804688 -33.285156 Z M 3.804688 0 "/></g></g></g><g fill="#000000" fill-opacity="1"><g transform="translate(138.818796, 238.459907)"><g><path d="M 3.804688 0 L 5.992188 0 L 5.992188 -14.21875 L 17.785156 -14.265625 L 26.816406 0 L 29.242188 0 L 20.066406 -14.40625 C 25.296875 -15.214844 28.957031 -18.925781 28.957031 -23.917969 C 28.957031 -29.574219 24.34375 -33.285156 17.972656 -33.285156 L 3.804688 -33.285156 Z M 5.992188 -16.070312 L 5.992188 -31.191406 L 17.6875 -31.191406 C 22.917969 -31.191406 26.722656 -28.292969 26.722656 -23.726562 C 26.722656 -19.164062 22.917969 -16.070312 17.6875 -16.070312 Z M 5.992188 -16.070312 "/></g></g></g><g fill="#000000" fill-opacity="1"><g transform="translate(174.191853, 238.459907)"><g><path d="M 19.210938 0.570312 C 28.816406 0.570312 35.851562 -6.5625 35.851562 -16.59375 C 35.851562 -26.628906 28.816406 -33.808594 19.210938 -33.808594 C 9.652344 -33.808594 2.617188 -26.628906 2.617188 -16.59375 C 2.617188 -6.5625 9.652344 0.570312 19.210938 0.570312 Z M 19.210938 -1.523438 C 10.890625 -1.523438 4.800781 -7.796875 4.800781 -16.59375 C 4.800781 -25.390625 10.890625 -31.714844 19.210938 -31.714844 C 27.578125 -31.714844 33.664062 -25.390625 33.664062 -16.59375 C 33.664062 -7.796875 27.578125 -1.523438 19.210938 -1.523438 Z M 19.210938 -1.523438 "/></g></g></g><g fill="#000000" fill-opacity="1"><g transform="translate(216.506185, 238.459907)"><g><path d="M 3.804688 0 L 19.589844 0 C 26.011719 0 30.71875 -3.757812 30.71875 -8.9375 C 30.71875 -13.027344 27.910156 -16.214844 23.679688 -17.402344 L 23.679688 -17.640625 C 26.867188 -18.925781 28.910156 -21.585938 28.910156 -25.011719 C 28.910156 -29.957031 24.773438 -33.285156 18.972656 -33.285156 L 3.804688 -33.285156 Z M 6.039062 -17.972656 L 6.039062 -31.242188 L 18.734375 -31.242188 C 23.347656 -31.242188 26.722656 -28.71875 26.722656 -24.679688 C 26.722656 -20.683594 23.347656 -17.972656 18.734375 -17.972656 Z M 6.039062 -2.042969 L 6.039062 -16.121094 L 19.402344 -16.121094 C 24.679688 -16.121094 28.484375 -13.410156 28.484375 -9.175781 C 28.484375 -4.898438 24.679688 -2.042969 19.402344 -2.042969 Z M 6.039062 -2.042969 "/></g></g></g><g fill="#000000" fill-opacity="1"><g transform="translate(253.780974, 238.459907)"><g><path d="M 30.8125 0.570312 L 31.621094 0.570312 L 31.621094 -33.285156 L 29.433594 -33.285156 L 29.433594 -4.992188 L 29.148438 -4.992188 L 4.613281 -33.808594 L 3.804688 -33.808594 L 3.804688 0 L 5.992188 0 L 5.992188 -28.292969 L 6.324219 -28.292969 Z M 30.8125 0.570312 "/></g></g></g><g fill="#000000" fill-opacity="1"><g transform="translate(293.052563, 238.459907)"><g><path d="M 3.804688 0 L 19.589844 0 C 26.011719 0 30.71875 -3.757812 30.71875 -8.9375 C 30.71875 -13.027344 27.910156 -16.214844 23.679688 -17.402344 L 23.679688 -17.640625 C 26.867188 -18.925781 28.910156 -21.585938 28.910156 -25.011719 C 28.910156 -29.957031 24.773438 -33.285156 18.972656 -33.285156 L 3.804688 -33.285156 Z M 6.039062 -17.972656 L 6.039062 -31.242188 L 18.734375 -31.242188 C 23.347656 -31.242188 26.722656 -28.71875 26.722656 -24.679688 C 26.722656 -20.683594 23.347656 -17.972656 18.734375 -17.972656 Z M 6.039062 -2.042969 L 6.039062 -16.121094 L 19.402344 -16.121094 C 24.679688 -16.121094 28.484375 -13.410156 28.484375 -9.175781 C 28.484375 -4.898438 24.679688 -2.042969 19.402344 -2.042969 Z M 6.039062 -2.042969 "/></g></g></g><g fill="#000000" fill-opacity="1"><g transform="translate(90.898014, 289.750717)"><g><path d="M 1.609375 0 L 1.609375 -2.414062 L 4.089844 -2.414062 L 4.089844 -3.382812 L 1.609375 -3.382812 L 1.609375 -4.8125 L 4.378906 -4.8125 L 4.378906 -5.789062 L 0.515625 -5.789062 L 0.515625 0 Z M 1.609375 0 "/></g></g></g><g fill="#000000" fill-opacity="1"><g transform="translate(99.276254, 289.750717)"><g><path d="M 4.378906 0 L 4.378906 -0.980469 L 1.609375 -0.980469 L 1.609375 -2.414062 L 4.089844 -2.414062 L 4.089844 -3.382812 L 1.609375 -3.382812 L 1.609375 -4.8125 L 4.378906 -4.8125 L 4.378906 -5.789062 L 0.515625 -5.789062 L 0.515625 0 Z M 4.378906 0 "/></g></g></g><g fill="#000000" fill-opacity="1"><g transform="translate(107.783512, 289.750717)"><g><path d="M 4.378906 0 L 4.378906 -0.980469 L 1.609375 -0.980469 L 1.609375 -2.414062 L 4.089844 -2.414062 L 4.089844 -3.382812 L 1.609375 -3.382812 L 1.609375 -4.8125 L 4.378906 -4.8125 L 4.378906 -5.789062 L 0.515625 -5.789062 L 0.515625 0 Z M 4.378906 0 "/></g></g></g><g fill="#000000" fill-opacity="1"><g transform="translate(116.290771, 289.750717)"><g><path d="M 4.058594 0 L 4.058594 -0.980469 L 1.609375 -0.980469 L 1.609375 -5.789062 L 0.515625 -5.789062 L 0.515625 0 Z M 4.058594 0 "/></g></g></g><g fill="#000000" fill-opacity="1"><g transform="translate(124.228852, 289.750717)"><g/></g></g><g fill="#000000" fill-opacity="1"><g transform="translate(130.057184, 289.750717)"><g><path d="M 2.816406 0.105469 C 4.179688 0.105469 4.976562 -0.585938 4.976562 -1.675781 C 4.976562 -2.988281 3.832031 -3.25 2.867188 -3.460938 C 2.164062 -3.621094 1.539062 -3.757812 1.539062 -4.289062 C 1.539062 -4.726562 1.933594 -4.964844 2.480469 -4.964844 C 3.074219 -4.964844 3.566406 -4.683594 3.710938 -4.066406 L 4.828125 -4.066406 C 4.644531 -5.320312 3.621094 -5.898438 2.503906 -5.898438 C 1.335938 -5.898438 0.457031 -5.3125 0.457031 -4.195312 C 0.457031 -2.976562 1.53125 -2.738281 2.480469 -2.527344 C 3.21875 -2.367188 3.878906 -2.222656 3.878906 -1.625 C 3.878906 -1.070312 3.421875 -0.828125 2.824219 -0.828125 C 2.214844 -0.828125 1.585938 -1.054688 1.394531 -1.882812 L 0.265625 -1.882812 C 0.410156 -0.386719 1.699219 0.105469 2.816406 0.105469 Z M 2.816406 0.105469 "/></g></g></g><g fill="#000000" fill-opacity="1"><g transform="translate(139.133621, 289.750717)"><g><path d="M 1.199219 0 L 1.585938 -1.191406 L 3.792969 -1.191406 L 4.1875 0 L 5.335938 0 L 3.292969 -5.789062 L 2.09375 -5.789062 L 0.0546875 0 Z M 2.695312 -4.597656 L 3.492188 -2.148438 L 1.898438 -2.148438 Z M 2.695312 -4.597656 "/></g></g></g><g fill="#000000" fill-opacity="1"><g transform="translate(148.316302, 289.750717)"><g><path d="M 1.609375 0 L 1.609375 -2.414062 L 4.089844 -2.414062 L 4.089844 -3.382812 L 1.609375 -3.382812 L 1.609375 -4.8125 L 4.378906 -4.8125 L 4.378906 -5.789062 L 0.515625 -5.789062 L 0.515625 0 Z M 1.609375 0 "/></g></g></g><g fill="#000000" fill-opacity="1"><g transform="translate(156.694542, 289.750717)"><g><path d="M 4.378906 0 L 4.378906 -0.980469 L 1.609375 -0.980469 L 1.609375 -2.414062 L 4.089844 -2.414062 L 4.089844 -3.382812 L 1.609375 -3.382812 L 1.609375 -4.8125 L 4.378906 -4.8125 L 4.378906 -5.789062 L 0.515625 -5.789062 L 0.515625 0 Z M 4.378906 0 "/></g></g></g><g fill="#000000" fill-opacity="1"><g transform="translate(165.201801, 289.750717)"><g><path d="M 0.941406 0.0820312 C 1.261719 0.0820312 1.53125 -0.191406 1.53125 -0.53125 C 1.53125 -0.851562 1.261719 -1.128906 0.941406 -1.128906 C 0.605469 -1.128906 0.320312 -0.859375 0.320312 -0.53125 C 0.320312 -0.191406 0.597656 0.0820312 0.941406 0.0820312 Z M 0.941406 0.0820312 "/></g></g></g><g fill="#000000" fill-opacity="1"><g transform="translate(170.848002, 289.750717)"><g><path d="M 0.941406 0.0820312 C 1.261719 0.0820312 1.53125 -0.191406 1.53125 -0.53125 C 1.53125 -0.851562 1.261719 -1.128906 0.941406 -1.128906 C 0.605469 -1.128906 0.320312 -0.859375 0.320312 -0.53125 C 0.320312 -0.191406 0.597656 0.0820312 0.941406 0.0820312 Z M 0.941406 0.0820312 "/></g></g></g><g fill="#000000" fill-opacity="1"><g transform="translate(176.494203, 289.750717)"><g><path d="M 0.941406 0.0820312 C 1.261719 0.0820312 1.53125 -0.191406 1.53125 -0.53125 C 1.53125 -0.851562 1.261719 -1.128906 0.941406 -1.128906 C 0.605469 -1.128906 0.320312 -0.859375 0.320312 -0.53125 C 0.320312 -0.191406 0.597656 0.0820312 0.941406 0.0820312 Z M 0.941406 0.0820312 "/></g></g></g><g fill="#000000" fill-opacity="1"><g transform="translate(182.140403, 289.750717)"><g><path d="M 1.609375 0 L 1.609375 -2.414062 L 4.089844 -2.414062 L 4.089844 -3.382812 L 1.609375 -3.382812 L 1.609375 -4.8125 L 4.378906 -4.8125 L 4.378906 -5.789062 L 0.515625 -5.789062 L 0.515625 0 Z M 1.609375 0 "/></g></g></g><g fill="#000000" fill-opacity="1"><g transform="translate(190.518643, 289.750717)"><g><path d="M 4.378906 0 L 4.378906 -0.980469 L 1.609375 -0.980469 L 1.609375 -2.414062 L 4.089844 -2.414062 L 4.089844 -3.382812 L 1.609375 -3.382812 L 1.609375 -4.8125 L 4.378906 -4.8125 L 4.378906 -5.789062 L 0.515625 -5.789062 L 0.515625 0 Z M 4.378906 0 "/></g></g></g><g fill="#000000" fill-opacity="1"><g transform="translate(199.025902, 289.750717)"><g><path d="M 4.378906 0 L 4.378906 -0.980469 L 1.609375 -0.980469 L 1.609375 -2.414062 L 4.089844 -2.414062 L 4.089844 -3.382812 L 1.609375 -3.382812 L 1.609375 -4.8125 L 4.378906 -4.8125 L 4.378906 -5.789062 L 0.515625 -5.789062 L 0.515625 0 Z M 4.378906 0 "/></g></g></g><g fill="#000000" fill-opacity="1"><g transform="translate(207.533161, 289.750717)"><g><path d="M 4.058594 0 L 4.058594 -0.980469 L 1.609375 -0.980469 L 1.609375 -5.789062 L 0.515625 -5.789062 L 0.515625 0 Z M 4.058594 0 "/></g></g></g><g fill="#000000" fill-opacity="1"><g transform="translate(215.471242, 289.750717)"><g/></g></g><g fill="#000000" fill-opacity="1"><g transform="translate(221.299574, 289.750717)"><g><path d="M 1.199219 0 L 1.585938 -1.191406 L 3.792969 -1.191406 L 4.1875 0 L 5.335938 0 L 3.292969 -5.789062 L 2.09375 -5.789062 L 0.0546875 0 Z M 2.695312 -4.597656 L 3.492188 -2.148438 L 1.898438 -2.148438 Z M 2.695312 -4.597656 "/></g></g></g><g fill="#000000" fill-opacity="1"><g transform="translate(230.482255, 289.750717)"><g><path d="M 2.9375 0 L 2.9375 -4.8125 L 4.699219 -4.8125 L 4.699219 -5.789062 L 0.0742188 -5.789062 L 0.0742188 -4.8125 L 1.84375 -4.8125 L 1.84375 0 Z M 2.9375 0 "/></g></g></g><g fill="#000000" fill-opacity="1"><g transform="translate(239.057816, 289.750717)"><g/></g></g><g fill="#000000" fill-opacity="1"><g transform="translate(244.886148, 289.750717)"><g><path d="M 1.609375 0 L 1.609375 -2.414062 L 4.089844 -2.414062 L 4.089844 0 L 5.183594 0 L 5.183594 -5.789062 L 4.089844 -5.789062 L 4.089844 -3.390625 L 1.609375 -3.390625 L 1.609375 -5.789062 L 0.515625 -5.789062 L 0.515625 0 Z M 1.609375 0 "/></g></g></g><g fill="#000000" fill-opacity="1"><g transform="translate(254.387564, 289.750717)"><g><path d="M 3.105469 0.105469 C 5.023438 0.105469 5.917969 -1.296875 5.917969 -2.898438 C 5.917969 -4.5 5.023438 -5.898438 3.105469 -5.898438 C 1.191406 -5.898438 0.296875 -4.5 0.296875 -2.898438 C 0.296875 -1.296875 1.191406 0.105469 3.105469 0.105469 Z M 3.105469 -0.871094 C 2.050781 -0.871094 1.433594 -1.691406 1.433594 -2.898438 C 1.433594 -4.097656 2.050781 -4.910156 3.105469 -4.910156 C 4.175781 -4.910156 4.78125 -4.097656 4.78125 -2.898438 C 4.78125 -1.691406 4.175781 -0.871094 3.105469 -0.871094 Z M 3.105469 -0.871094 "/></g></g></g><g fill="#000000" fill-opacity="1"><g transform="translate(264.405046, 289.750717)"><g><path d="M 1.609375 0 L 1.609375 -4.941406 L 2.988281 0 L 4.058594 0 L 5.441406 -4.972656 L 5.441406 0 L 6.535156 0 L 6.535156 -5.789062 L 4.710938 -5.789062 L 3.519531 -1.320312 L 2.320312 -5.789062 L 0.515625 -5.789062 L 0.515625 0 Z M 1.609375 0 "/></g></g></g><g fill="#000000" fill-opacity="1"><g transform="translate(275.249713, 289.750717)"><g><path d="M 4.378906 0 L 4.378906 -0.980469 L 1.609375 -0.980469 L 1.609375 -2.414062 L 4.089844 -2.414062 L 4.089844 -3.382812 L 1.609375 -3.382812 L 1.609375 -4.8125 L 4.378906 -4.8125 L 4.378906 -5.789062 L 0.515625 -5.789062 L 0.515625 0 Z M 4.378906 0 "/></g></g></g><path stroke-linecap="round" transform="matrix(1.49782, 0, 0, 1.5, 111.749997, 268.952589)" fill="none" stroke-linejoin="miter" d="M 0.50073 0.000357508 L 101.650328 0.000357508 " stroke="#a500ff" stroke-width="1" stroke-opacity="1" stroke-miterlimit="4"/></svg>